<svg width="19" height="25" viewBox="0 0 19 25" fill="none" xmlns="http://www.w3.org/2000/svg">
<g clip-path="url(#clip0_51_2617)">
<path d="M11.1113 23.9583C14.5631 23.9583 17.3613 21.1601 17.3613 17.7083C17.3613 14.2566 14.5631 11.4583 11.1113 11.4583C7.65955 11.4583 4.86133 14.2566 4.86133 17.7083C4.86133 21.1601 7.65955 23.9583 11.1113 23.9583Z" stroke="white" stroke-width="1.5"/>
<path d="M2.16849 3.64276H2.91122H6.11634H6.85907C7.67322 3.64276 8.33322 2.98276 8.33322 2.16861C8.33322 1.35446 7.67322 0.694458 6.85907 0.694458H4.51378H2.16849C1.35434 0.694458 0.694336 1.35446 0.694336 2.16861C0.694336 2.98276 1.35434 3.64276 2.16849 3.64276Z" fill="white"/>
<path d="M9.02767 9.02779L6.11634 3.64276M6.11634 3.64276H6.85907C7.67322 3.64276 8.33322 2.98276 8.33322 2.16861C8.33322 1.35446 7.67322 0.694458 6.85907 0.694458H4.51378H2.16849C1.35434 0.694458 0.694336 1.35446 0.694336 2.16861C0.694336 2.98276 1.35434 3.64276 2.16849 3.64276H2.91122M6.11634 3.64276H2.91122M2.91122 3.64276L0.694336 9.02779V19.7917C0.694336 20.9423 1.62708 21.875 2.77767 21.875H3.51218" stroke="white" stroke-width="1.5"/>
<path fill-rule="evenodd" clip-rule="evenodd" d="M11.8055 5.90277C10.6472 5.94655 9.72217 6.86253 9.72217 7.9861C9.72217 9.10965 10.6472 10.0257 11.8055 10.0694V5.90277Z" fill="white"/>
<mask id="mask0_51_2617" style="mask-type:luminance" maskUnits="userSpaceOnUse" x="9" y="5" width="3" height="6">
<path fill-rule="evenodd" clip-rule="evenodd" d="M11.8055 5.90277C10.6472 5.94655 9.72217 6.86253 9.72217 7.9861C9.72217 9.10965 10.6472 10.0257 11.8055 10.0694V5.90277Z" fill="white"/>
</mask>
<g mask="url(#mask0_51_2617)">
<path d="M11.8057 5.90276H13.1946V4.46039L11.7533 4.51487L11.8057 5.90276ZM11.8057 10.0694L11.7533 11.4573L13.1946 11.5118V10.0694H11.8057ZM11.1113 7.9861C11.1113 7.66103 11.3931 7.30825 11.8581 7.29068L11.7533 4.51487C9.90183 4.58484 8.3335 6.06401 8.3335 7.9861H11.1113ZM11.8581 8.68151C11.3931 8.66394 11.1113 8.31117 11.1113 7.9861H8.3335C8.3335 9.90818 9.90183 11.3873 11.7533 11.4573L11.8581 8.68151ZM13.1946 10.0694V5.90276H10.4168V10.0694H13.1946Z" fill="white"/>
</g>
<path fill-rule="evenodd" clip-rule="evenodd" d="M11.8057 10.0694C11.8494 8.91118 12.7655 7.98611 13.889 7.98611C15.0125 7.98611 15.9286 8.91118 15.9723 10.0694H11.8057Z" fill="white"/>
<mask id="mask1_51_2617" style="mask-type:luminance" maskUnits="userSpaceOnUse" x="11" y="7" width="5" height="4">
<path fill-rule="evenodd" clip-rule="evenodd" d="M11.8057 10.0694C11.8494 8.91118 12.7655 7.98611 13.889 7.98611C15.0125 7.98611 15.9286 8.91118 15.9723 10.0694H11.8057Z" fill="white"/>
</mask>
<g mask="url(#mask1_51_2617)">
<path d="M11.8056 10.0695V11.4583H10.3633L10.4177 10.017L11.8056 10.0695ZM15.9723 10.0695L17.3602 10.017L17.4147 11.4583H15.9723V10.0695ZM13.889 9.37501C13.5639 9.37501 13.2111 9.65681 13.1936 10.1219L10.4177 10.017C10.4877 8.16556 11.9669 6.59723 13.889 6.59723V9.37501ZM14.5844 10.1219C14.5668 9.65681 14.214 9.37501 13.889 9.37501V6.59723C15.8111 6.59723 17.2902 8.16556 17.3602 10.017L14.5844 10.1219ZM15.9723 11.4583H11.8056V8.68056H15.9723V11.4583Z" fill="white"/>
</g>
</g>
<defs>
<clipPath id="clip0_51_2617">
<rect width="18.0556" height="25" fill="white"/>
</clipPath>
</defs>
</svg>
