<svg width="26" height="26" viewBox="0 0 26 26" fill="none" xmlns="http://www.w3.org/2000/svg">
<path d="M17.99 26C15.8483 26 14.0279 25.2504 12.5288 23.7512C11.0296 22.2521 10.28 20.4317 10.28 18.29C10.28 16.1483 11.0296 14.3279 12.5288 12.8287C14.0279 11.3296 15.8483 10.58 17.99 10.58C20.1317 10.58 21.9521 11.3296 23.4513 12.8287C24.9504 14.3279 25.7 16.1483 25.7 18.29C25.7 20.4317 24.9504 22.2521 23.4513 23.7512C21.9521 25.2504 20.1317 26 17.99 26ZM17.99 23.43C19.4035 23.43 20.6135 22.9267 21.6201 21.9201C22.6267 20.9135 23.13 19.7035 23.13 18.29C23.13 16.8765 22.6267 15.6664 21.6201 14.6599C20.6135 13.6533 19.4035 13.15 17.99 13.15C16.5765 13.15 15.3665 13.6533 14.3599 14.6599C13.3533 15.6664 12.85 16.8765 12.85 18.29C12.85 19.7035 13.3533 20.9135 14.3599 21.9201C15.3665 22.9267 16.5765 23.43 17.99 23.43ZM2.57 23.43C1.86325 23.43 1.25823 23.1783 0.754937 22.6751C0.251646 22.1718 0 21.5667 0 20.86V11.094C0 10.9227 0.0160625 10.7513 0.0481875 10.58C0.0803125 10.4087 0.1285 10.2373 0.19275 10.066L2.76275 4.15499H2.57C2.20592 4.15499 1.90073 4.03184 1.65444 3.78555C1.40815 3.53926 1.285 3.23407 1.285 2.86999V1.58499C1.285 1.2209 1.40815 0.915717 1.65444 0.669425C1.90073 0.423134 2.20592 0.299988 2.57 0.299988H11.565C11.9291 0.299988 12.2343 0.423134 12.4806 0.669425C12.7269 0.915717 12.85 1.2209 12.85 1.58499V2.86999C12.85 3.23407 12.7269 3.53926 12.4806 3.78555C12.2343 4.03184 11.9291 4.15499 11.565 4.15499H11.3722L13.4925 9.03799C13.0856 9.25215 12.7001 9.47703 12.336 9.71261C11.9719 9.9482 11.6292 10.2159 11.308 10.5157L8.6095 4.15499H5.5255L2.57 11.094V20.86H8.03125C8.13833 21.3097 8.2829 21.7541 8.46494 22.1932C8.64698 22.6322 8.8665 23.0445 9.1235 23.43H2.57ZM17.99 9.29499C17.0905 9.29499 16.3302 8.98445 15.7091 8.36336C15.088 7.74228 14.7775 6.98199 14.7775 6.08249C14.7775 5.18299 15.088 4.4227 15.7091 3.80161C16.3302 3.18053 17.0905 2.86999 17.99 2.86999V9.29499C17.99 8.39549 18.3005 7.6352 18.9216 7.01411C19.5427 6.39303 20.303 6.08249 21.2025 6.08249C22.102 6.08249 22.8623 6.39303 23.4834 7.01411C24.1045 7.6352 24.415 8.39549 24.415 9.29499H17.99Z" fill="#65558F"/>
</svg>
