<svg width="110" height="33" viewBox="0 0 110 33" fill="none" xmlns="http://www.w3.org/2000/svg">
<path d="M44.5244 10.2657L40.0075 23H36.1255L31.6087 10.2657H34.9102L38.0665 19.8799L41.241 10.2657H44.5244ZM45.204 17.9208C45.204 16.8808 45.3975 15.9677 45.7845 15.1817C46.1836 14.3956 46.7218 13.7909 47.399 13.3677C48.0762 12.9444 48.832 12.7328 49.6665 12.7328C50.38 12.7328 51.0028 12.8779 51.5349 13.1681C52.0791 13.4584 52.4963 13.8393 52.7866 14.3109V12.8779H55.8885V23H52.7866V21.5669C52.4842 22.0386 52.061 22.4195 51.5168 22.7098C50.9847 23 50.3618 23.1451 49.6483 23.1451C48.826 23.1451 48.0762 22.9335 47.399 22.5102C46.7218 22.0749 46.1836 21.4641 45.7845 20.6781C45.3975 19.8799 45.204 18.9608 45.204 17.9208ZM52.7866 17.9389C52.7866 17.165 52.5689 16.5543 52.1335 16.1068C51.7103 15.6593 51.1902 15.4356 50.5735 15.4356C49.9567 15.4356 49.4307 15.6593 48.9953 16.1068C48.572 16.5422 48.3604 17.1468 48.3604 17.9208C48.3604 18.6948 48.572 19.3115 48.9953 19.7711C49.4307 20.2185 49.9567 20.4423 50.5735 20.4423C51.1902 20.4423 51.7103 20.2185 52.1335 19.7711C52.5689 19.3236 52.7866 18.7129 52.7866 17.9389ZM61.2346 9.5764V23H58.1326V9.5764H61.2346ZM66.5844 9.5764V23H63.4825V9.5764H66.5844ZM68.2156 17.9208C68.2156 16.8808 68.4091 15.9677 68.7961 15.1817C69.1952 14.3956 69.7333 13.7909 70.4106 13.3677C71.0878 12.9444 71.8436 12.7328 72.6781 12.7328C73.3916 12.7328 74.0144 12.8779 74.5465 13.1681C75.0907 13.4584 75.5079 13.8393 75.7981 14.3109V12.8779H78.9001V23H75.7981V21.5669C75.4958 22.0386 75.0725 22.4195 74.5283 22.7098C73.9962 23 73.3734 23.1451 72.6599 23.1451C71.8376 23.1451 71.0878 22.9335 70.4106 22.5102C69.7333 22.0749 69.1952 21.4641 68.7961 20.6781C68.4091 19.8799 68.2156 18.9608 68.2156 17.9208ZM75.7981 17.9389C75.7981 17.165 75.5805 16.5543 75.1451 16.1068C74.7218 15.6593 74.2018 15.4356 73.5851 15.4356C72.9683 15.4356 72.4422 15.6593 72.0069 16.1068C71.5836 16.5422 71.372 17.1468 71.372 17.9208C71.372 18.6948 71.5836 19.3115 72.0069 19.7711C72.4422 20.2185 72.9683 20.4423 73.5851 20.4423C74.2018 20.4423 74.7218 20.2185 75.1451 19.7711C75.5805 19.3236 75.7981 18.7129 75.7981 17.9389ZM84.2461 14.3109C84.5364 13.8393 84.9536 13.4584 85.4978 13.1681C86.042 12.8779 86.6648 12.7328 87.3662 12.7328C88.2007 12.7328 88.9565 12.9444 89.6337 13.3677C90.3109 13.7909 90.8431 14.3956 91.23 15.1817C91.6291 15.9677 91.8287 16.8808 91.8287 17.9208C91.8287 18.9608 91.6291 19.8799 91.23 20.6781C90.8431 21.4641 90.3109 22.0749 89.6337 22.5102C88.9565 22.9335 88.2007 23.1451 87.3662 23.1451C86.6527 23.1451 86.0299 23.006 85.4978 22.7279C84.9657 22.4377 84.5485 22.0567 84.2461 21.5851V23H81.1442V9.5764H84.2461V14.3109ZM88.6723 17.9208C88.6723 17.1468 88.4546 16.5422 88.0193 16.1068C87.596 15.6593 87.0699 15.4356 86.4411 15.4356C85.8243 15.4356 85.2983 15.6593 84.8629 16.1068C84.4396 16.5543 84.228 17.165 84.228 17.9389C84.228 18.7129 84.4396 19.3236 84.8629 19.7711C85.2983 20.2185 85.8243 20.4423 86.4411 20.4423C87.0578 20.4423 87.5839 20.2185 88.0193 19.7711C88.4546 19.3115 88.6723 18.6948 88.6723 17.9208ZM99.678 12.769C100.839 12.769 101.77 13.156 102.472 13.93C103.173 14.6919 103.524 15.744 103.524 17.0864V23H100.44V17.5036C100.44 16.8264 100.265 16.3003 99.9139 15.9254C99.5632 15.5505 99.0915 15.3631 98.4989 15.3631C97.9064 15.3631 97.4347 15.5505 97.084 15.9254C96.7333 16.3003 96.558 16.8264 96.558 17.5036V23H93.456V9.5764H96.558V14.2384C96.8724 13.7909 97.3017 13.4342 97.8459 13.1681C98.3901 12.9021 99.0008 12.769 99.678 12.769Z" fill="#65558F"/>
<g clip-path="url(#clip0_28_10195)">
<path d="M19.1111 27.9583C22.5629 27.9583 25.3611 25.1601 25.3611 21.7083C25.3611 18.2565 22.5629 15.4583 19.1111 15.4583C15.6593 15.4583 12.8611 18.2565 12.8611 21.7083C12.8611 25.1601 15.6593 27.9583 19.1111 27.9583Z" stroke="#65558F" stroke-width="1.5"/>
<path d="M10.1686 7.64276H10.9113H14.1164H14.8592C15.6733 7.64276 16.3333 6.98276 16.3333 6.16861C16.3333 5.35446 15.6733 4.69446 14.8592 4.69446H12.5139H10.1686C9.35444 4.69446 8.69444 5.35446 8.69444 6.16861C8.69444 6.98276 9.35444 7.64276 10.1686 7.64276Z" fill="#65558F"/>
<path d="M17.0278 13.0278L14.1164 7.64276M14.1164 7.64276H14.8592C15.6733 7.64276 16.3333 6.98276 16.3333 6.16861C16.3333 5.35446 15.6733 4.69446 14.8592 4.69446H12.5139H10.1686C9.35444 4.69446 8.69444 5.35446 8.69444 6.16861C8.69444 6.98276 9.35444 7.64276 10.1686 7.64276H10.9113M14.1164 7.64276H10.9113M10.9113 7.64276L8.69444 13.0278V23.7917C8.69444 24.9423 9.62719 25.875 10.7778 25.875H11.5123" stroke="#65558F" stroke-width="1.5"/>
<path fill-rule="evenodd" clip-rule="evenodd" d="M19.8056 9.90277C18.6473 9.94655 17.7222 10.8625 17.7222 11.9861C17.7222 13.1096 18.6473 14.0257 19.8056 14.0694V9.90277Z" fill="#65558F"/>
<mask id="mask0_28_10195" style="mask-type:luminance" maskUnits="userSpaceOnUse" x="17" y="9" width="3" height="6">
<path fill-rule="evenodd" clip-rule="evenodd" d="M19.8056 9.90277C18.6473 9.94655 17.7222 10.8625 17.7222 11.9861C17.7222 13.1096 18.6473 14.0257 19.8056 14.0694V9.90277Z" fill="white"/>
</mask>
<g mask="url(#mask0_28_10195)">
<path d="M19.8056 9.90276H21.1944V8.46039L19.7531 8.51487L19.8056 9.90276ZM19.8056 14.0694L19.7531 15.4573L21.1944 15.5118V14.0694H19.8056ZM19.1111 11.9861C19.1111 11.661 19.3929 11.3082 19.858 11.2907L19.7531 8.51487C17.9017 8.58484 16.3333 10.064 16.3333 11.9861H19.1111ZM19.858 12.6815C19.3929 12.6639 19.1111 12.3112 19.1111 11.9861H16.3333C16.3333 13.9082 17.9017 15.3873 19.7531 15.4573L19.858 12.6815ZM21.1944 14.0694V9.90276H18.4167V14.0694H21.1944Z" fill="#65558F"/>
</g>
<path fill-rule="evenodd" clip-rule="evenodd" d="M19.8056 14.0694C19.8493 12.9112 20.7653 11.9861 21.8889 11.9861C23.0124 11.9861 23.9285 12.9112 23.9722 14.0694H19.8056Z" fill="#65558F"/>
<mask id="mask1_28_10195" style="mask-type:luminance" maskUnits="userSpaceOnUse" x="19" y="11" width="5" height="4">
<path fill-rule="evenodd" clip-rule="evenodd" d="M19.8056 14.0694C19.8493 12.9112 20.7653 11.9861 21.8889 11.9861C23.0124 11.9861 23.9285 12.9112 23.9722 14.0694H19.8056Z" fill="white"/>
</mask>
<g mask="url(#mask1_28_10195)">
<path d="M19.8056 14.0694V15.4583H18.3632L18.4176 14.017L19.8056 14.0694ZM23.9722 14.0694L25.3601 14.017L25.4146 15.4583H23.9722V14.0694ZM21.8889 13.3749C21.5638 13.3749 21.211 13.6568 21.1935 14.1218L18.4176 14.017C18.4876 12.1655 19.9668 10.5972 21.8889 10.5972V13.3749ZM22.5843 14.1218C22.5667 13.6568 22.214 13.3749 21.8889 13.3749V10.5972C23.811 10.5972 25.2901 12.1655 25.3601 14.017L22.5843 14.1218ZM23.9722 15.4583H19.8056V12.6805H23.9722V15.4583Z" fill="#65558F"/>
</g>
</g>
<defs>
<clipPath id="clip0_28_10195">
<rect width="18.0556" height="25" fill="white" transform="translate(8 4)"/>
</clipPath>
</defs>
</svg>
